[h264 @ 0x55c0b4e02400] Reinit context to 1920x1088, pix_fmt: yuv420p
Input #0, mov,mp4,m4a,3gp,3g2,mj2, from '/var/www/html/project/media/video/original/VID_20230108_163610576.mp4':
  Metadata:
    major_brand     : mp42
    minor_version   : 0
    compatible_brands: isommp42
    creation_time   : 2023-01-08T15:36:30.000000Z
    com.android.version: 12
    com.android.manufacturer: motorola
    com.android.model: motorola edge 20
  Duration: 00:00:18.35, start: 0.000000, bitrate: 19555 kb/s
    Stream #0:0(eng): Video: h264 (High), 1 reference frame (avc1 / 0x31637661), yuv420p(tv, bt709, left), 1920x1080 (1920x1088), 19124 kb/s, 30.03 fps, 30 tbr, 90k tbn, 60 tbc (default)
    Metadata:
      rotate          : 90
      creation_time   : 2023-01-08T15:36:30.000000Z
      handler_name    : VideoHandle
    Side data:
      displaymatrix: rotation of -90.00 degrees
    Stream #0:1(eng): Audio: aac (LC) (mp4a / 0x6134706D), 48000 Hz, stereo, fltp, 256 kb/s (default)
    Metadata:
      creation_time   : 2023-01-08T15:36:30.000000Z
      handler_name    : SoundHandle
Input #1, png_pipe, from '/var/www/html/project/static/images/templates/logo.png':
  Duration: N/A, bitrate: N/A
    Stream #1:0: Video: png, 1 reference frame, rgba(pc), 1920x1080 [SAR 2835:2835 DAR 16:9], 25 tbr, 25 tbn, 25 tbc
[h264 @ 0x55c0b4e06c40] Reinit context to 1280x720, pix_fmt: yuv420p
Input #2, mov,mp4,m4a,3gp,3g2,mj2, from '/var/www/html/project/static/images/templates/Codino.mp4':
  Metadata:
    major_brand     : mp42
    minor_version   : 1
    compatible_brands: isommp41mp42
    creation_time   : 2021-07-11T07:02:58.000000Z
  Duration: 00:00:02.00, start: 0.000000, bitrate: 1007 kb/s
    Stream #2:0(ita): Audio: aac (LC) (mp4a / 0x6134706D), 44100 Hz, stereo, fltp, 102 kb/s (default)
    Metadata:
      creation_time   : 2021-07-11T07:02:58.000000Z
      handler_name    : Core Media Audio
    Stream #2:1(und): Video: h264 (High), 1 reference frame (avc1 / 0x31637661), yuv420p(tv, bt709, progressive, left), 1280x720 [SAR 1:1 DAR 16:9], 813 kb/s, 25 fps, 25 tbr, 25k tbn, 50k tbc (default)
    Metadata:
      creation_time   : 2021-07-11T07:02:58.000000Z
      handler_name    : Core Media Video
[Parsed_scale_0 @ 0x55c0b4e43a80] w:1280 h:720 flags:'bilinear' interl:0
[Parsed_scale_2 @ 0x55c0b4effdc0] w:1280 h:720 flags:'bilinear' interl:0
[Parsed_scale_4 @ 0x55c0b4e3d4c0] w:1280 h:720 flags:'bilinear' interl:0
Stream mapping:
  Stream #0:0 (h264) -> scale
  Stream #0:1 (aac) -> concat:in0:a0
  Stream #1:0 (png) -> scale
  Stream #2:0 (aac) -> concat:in1:a0
  Stream #2:1 (h264) -> scale
  concat:out:v0 -> Stream #0:0 (libx264)
  concat:out:a0 -> Stream #0:1 (aac)
Press [q] to stop, [?] for help
[h264 @ 0x55c0b4e4b9c0] Reinit context to 1920x1088, pix_fmt: yuv420p
[h264 @ 0x55c0b52c80c0] Reinit context to 1280x720, pix_fmt: yuv420p
[Parsed_scale_0 @ 0x55c0b6800100] w:1280 h:720 flags:'bilinear' interl:0
[Parsed_scale_2 @ 0x55c0b67fff40] w:1280 h:720 flags:'bilinear' interl:0
[Parsed_scale_4 @ 0x55c0b6809800] w:1280 h:720 flags:'bilinear' interl:0
[graph 0 input from stream 0:0 @ 0x55c0b680e0c0] w:1920 h:1080 pixfmt:yuv420p tb:1/90000 fr:30/1 sar:0/1 sws_param:flags=2
[graph 0 input from stream 1:0 @ 0x55c0b680fa40] w:1920 h:1080 pixfmt:rgba tb:1/25 fr:25/1 sar:2835/2835 sws_param:flags=2
[graph 0 input from stream 2:1 @ 0x55c0b6810a00] w:1280 h:720 pixfmt:yuv420p tb:1/25000 fr:25/1 sar:1/1 sws_param:flags=2
[graph_0_in_0_1 @ 0x55c0b68119c0] tb:1/48000 samplefmt:fltp samplerate:48000 chlayout:0x3
[graph_0_in_2_0 @ 0x55c0b6812b00] tb:1/44100 samplefmt:fltp samplerate:44100 chlayout:0x3
[Parsed_concat_7 @ 0x55c0b680c140] auto-inserting filter 'auto_resampler_0' between the filter 'graph_0_in_2_0' and the filter 'Parsed_concat_7'
[transpose @ 0x55c0b680ee80] w:1920 h:1080 dir:1 -> w:1080 h:1920 rotation:clockwise vflip:0
[Parsed_scale_0 @ 0x55c0b6800100] w:1080 h:1920 fmt:yuv420p sar:0/1 -> w:1280 h:720 fmt:yuv420p sar:0/1 flags:0x2
[Parsed_setsar_1 @ 0x55c0b6800340] w:1280 h:720 sar:0/1 dar:16/9 -> sar:1/1 dar:16/9
[Parsed_scale_2 @ 0x55c0b67fff40] w:1920 h:1080 fmt:rgba sar:2835/2835 -> w:1280 h:720 fmt:yuva420p sar:1/1 flags:0x2
[Parsed_setsar_3 @ 0x55c0b6808b80] w:1280 h:720 sar:1/1 dar:16/9 -> sar:1/1 dar:16/9
[Parsed_overlay_6 @ 0x55c0b680af40] main w:1280 h:720 fmt:yuv420p overlay w:1280 h:720 fmt:yuva420p
[Parsed_overlay_6 @ 0x55c0b680af40] [framesync @ 0x55c0b680b0a8] Selected 1/90000 time base
[Parsed_overlay_6 @ 0x55c0b680af40] [framesync @ 0x55c0b680b0a8] Sync level 2
[Parsed_scale_4 @ 0x55c0b6809800] w:1280 h:720 fmt:yuv420p sar:1/1 -> w:1280 h:720 fmt:yuv420p sar:1/1 flags:0x2
[Parsed_setsar_5 @ 0x55c0b680a340] w:1280 h:720 sar:1/1 dar:16/9 -> sar:1/1 dar:16/9
[auto_resampler_0 @ 0x55c0b681aec0] ch:2 chl:stereo fmt:fltp r:44100Hz -> ch:2 chl:stereo fmt:fltp r:48000Hz
[libx264 @ 0x55c0b4e3bac0] using SAR=1/1
[libx264 @ 0x55c0b4e3bac0] using cpu capabilities: MMX2 SSE2Fast SSSE3 SSE4.2 AVX FMA3 BMI2 AVX2
[libx264 @ 0x55c0b4e3bac0] profile High, level 3.1
[libx264 @ 0x55c0b4e3bac0] 264 - core 155 r2917 0a84d98 - H.264/MPEG-4 AVC codec - Copyleft 2003-2018 - http://www.videolan.org/x264.html - options: cabac=1 ref=1 deblock=1:0:0 analyse=0x3:0x113 me=hex subme=2 psy=1 psy_rd=1.00:0.00 mixed_ref=0 me_range=16 chroma_me=1 trellis=0 8x8dct=1 cqm=0 deadzone=21,11 fast_pskip=1 chroma_qp_offset=0 threads=22 lookahead_threads=5 sliced_threads=0 nr=0 decimate=1 interlaced=0 bluray_compat=0 constrained_intra=0 bframes=3 b_pyramid=2 b_adapt=1 b_bias=0 direct=1 weightb=1 open_gop=0 weightp=1 keyint=250 keyint_min=25 scenecut=40 intra_refresh=0 rc_lookahead=10 rc=crf mbtree=1 crf=18.0 qcomp=0.60 qpmin=0 qpmax=69 qpstep=4 ip_ratio=1.40 aq=1:1.00
Output #0, mp4, to '/var/www/html/project/media/video/watermarks/VID_20230108_163610576.mp4':
  Metadata:
    major_brand     : mp42
    minor_version   : 0
    compatible_brands: isommp42
    com.android.model: motorola edge 20
    com.android.version: 12
    com.android.manufacturer: motorola
    encoder         : Lavf58.29.100
    Stream #0:0: Video: h264 (libx264), 1 reference frame (avc1 / 0x31637661), yuv420p(progressive), 1280x720 [SAR 1:1 DAR 16:9], q=-1--1, 30 fps, 15360 tbn, 30 tbc (default)
    Metadata:
      encoder         : Lavc58.54.100 libx264
    Side data:
      cpb: bitrate max/min/avg: 0/0/0 buffer size: 0 vbv_delay: -1
    Stream #0:1: Audio: aac (LC) (mp4a / 0x6134706D), 48000 Hz, stereo, fltp, delay 1024, 128 kb/s (default)
    Metadata:
      encoder         : Lavc58.54.100 aac
[Parsed_overlay_6 @ 0x55c0b680af40] [framesync @ 0x55c0b680b0a8] Sync level 0
[Parsed_concat_7 @ 0x55c0b680c140] EOF on in0:v0, 1 streams left in segment.
[Parsed_concat_7 @ 0x55c0b680c140] EOF on in0:a0, 0 streams left in segment.
[Parsed_concat_7 @ 0x55c0b680c140] Segment finished at pts=18351149
[Parsed_concat_7 @ 0x55c0b680c140] EOF on in1:v0, 1 streams left in segment.
[Parsed_concat_7 @ 0x55c0b680c140] EOF on in1:a0, 0 streams left in segment.
[Parsed_concat_7 @ 0x55c0b680c140] Segment finished at pts=20369836
No more output streams to write to, finishing.
frame=  601 fps= 53 q=-1.0 Lsize=    8649kB time=00:00:20.39 bitrate=3474.8kbits/s speed=1.81x    
[AVIOContext @ 0x55c0b4e00440] Statistics: 0 seeks, 23 writeouts
video:8311kB audio:315kB subtitle:0kB other streams:0kB global headers:0kB muxing overhead: 0.265602%
Input file #0 (/var/www/html/project/media/video/original/VID_20230108_163610576.mp4):
  Input stream #0:0 (video): 551 packets read (43869104 bytes); 551 frames decoded; 
  Input stream #0:1 (audio): 857 packets read (585253 bytes); 857 frames decoded (877568 samples); 
  Total: 1408 packets (44454357 bytes) demuxed
Input file #1 (/var/www/html/project/static/images/templates/logo.png):
  Input stream #1:0 (video): 1 packets read (111578 bytes); 1 frames decoded; 
  Total: 1 packets (111578 bytes) demuxed
Input file #2 (/var/www/html/project/static/images/templates/Codino.mp4):
  Input stream #2:0 (audio): 89 packets read (26579 bytes); 87 frames decoded (89024 samples); 
  Input stream #2:1 (video): 50 packets read (203365 bytes); 50 frames decoded; 
  Total: 139 packets (229944 bytes) demuxed
Output file #0 (/var/www/html/project/media/video/watermarks/VID_20230108_163610576.mp4):
  Output stream #0:0 (video): 601 frames encoded; 601 packets muxed (8510698 bytes); 
  Output stream #0:1 (audio): 953 frames encoded (974891 samples); 954 packets muxed (322440 bytes); 
  Total: 1555 packets (8833138 bytes) muxed
[AVIOContext @ 0x55c0b4f03a00] Statistics: 2 seeks, 37 writeouts
[libx264 @ 0x55c0b4e3bac0] frame I:4     Avg QP:13.17  size: 69374
[libx264 @ 0x55c0b4e3bac0] frame P:189   Avg QP:18.03  size: 25553
[libx264 @ 0x55c0b4e3bac0] frame B:408   Avg QP:20.49  size:  8340
[libx264 @ 0x55c0b4e3bac0] consecutive B-frames:  5.3%  9.7%  8.5% 76.5%
[libx264 @ 0x55c0b4e3bac0] mb I  I16..4: 39.4% 26.9% 33.7%
[libx264 @ 0x55c0b4e3bac0] mb P  I16..4: 10.4% 15.6%  2.3%  P16..4: 27.2% 14.7%  7.2%  0.0%  0.0%    skip:22.6%
[libx264 @ 0x55c0b4e3bac0] mb B  I16..4:  2.2%  1.1%  0.0%  B16..8: 25.5%  9.5%  1.2%  direct:14.4%  skip:46.0%  L0:36.9% L1:42.0% BI:21.1%
[libx264 @ 0x55c0b4e3bac0] 8x8 transform intra:49.2% inter:28.5%
[libx264 @ 0x55c0b4e3bac0] coded y,uvDC,uvAC intra: 45.2% 45.6% 11.2% inter: 13.7% 22.1% 0.8%
[libx264 @ 0x55c0b4e3bac0] i16 v,h,dc,p: 21% 54% 14% 10%
[libx264 @ 0x55c0b4e3bac0] i8 v,h,dc,ddl,ddr,vr,hd,vl,hu:  5% 61% 19%  1%  2%  1%  5%  1%  4%
[libx264 @ 0x55c0b4e3bac0] i4 v,h,dc,ddl,ddr,vr,hd,vl,hu: 10% 45% 12%  4%  6%  2% 10%  4%  7%
[libx264 @ 0x55c0b4e3bac0] i8c dc,h,v,p: 51% 37%  9%  3%
[libx264 @ 0x55c0b4e3bac0] Weighted P-Frames: Y:11.1% UV:1.1%
[libx264 @ 0x55c0b4e3bac0] kb/s:3348.20
[aac @ 0x55c0b4e563c0] Qavg: 2942.037
[AVIOContext @ 0x55c0b4e093c0] Statistics: 44611613 bytes read, 6 seeks
[AVIOContext @ 0x55c0b4e65dc0] Statistics: 111578 bytes read, 0 seeks
[AVIOContext @ 0x55c0b4e080c0] Statistics: 1530915 bytes read, 42 seeks
